<?xml version="1.0" encoding="UTF-8" standalone="no"?>
<!-- Generated by IcoMoon.io -->

<svg
   xmlns:dc="http://purl.org/dc/elements/1.1/"
   xmlns:cc="http://creativecommons.org/ns#"
   xmlns:rdf="http://www.w3.org/1999/02/22-rdf-syntax-ns#"
   xmlns:svg="http://www.w3.org/2000/svg"
   xmlns="http://www.w3.org/2000/svg"
   xmlns:sodipodi="http://sodipodi.sourceforge.net/DTD/sodipodi-0.dtd"
   xmlns:inkscape="http://www.inkscape.org/namespaces/inkscape"
   version="1.1"
   width="32"
   height="32"
   viewBox="0 0 32 32"
   id="svg2"
   inkscape:version="0.91 r13725"
   sodipodi:docname="stack.svg">
  <metadata
     id="metadata10">
    <rdf:RDF>
      <cc:Work
         rdf:about="">
        <dc:format>image/svg+xml</dc:format>
        <dc:type
           rdf:resource="http://purl.org/dc/dcmitype/StillImage" />
      </cc:Work>
    </rdf:RDF>
  </metadata>
  <defs
     id="defs8" />
  <sodipodi:namedview
     pagecolor="#ffffff"
     bordercolor="#666666"
     borderopacity="1"
     objecttolerance="10"
     gridtolerance="10"
     guidetolerance="10"
     inkscape:pageopacity="0"
     inkscape:pageshadow="2"
     inkscape:window-width="988"
     inkscape:window-height="772"
     id="namedview6"
     showgrid="false"
     inkscape:zoom="7.375"
     inkscape:cx="16"
     inkscape:cy="16"
     inkscape:window-x="0"
     inkscape:window-y="0"
     inkscape:window-maximized="0"
     inkscape:current-layer="svg2" />
  <path
     d="M32 10l-16-8-16 8 16 8 16-8zM16 4.655l10.689 5.345-10.689 5.345-10.689-5.345 10.689-5.345zM28.795 14.398l3.205 1.602-16 8-16-8 3.205-1.602 12.795 6.398zM28.795 20.398l3.205 1.602-16 8-16-8 3.205-1.602 12.795 6.398z"
     fill="#444444"
     id="path4" />
  <path
     style="fill:#ffffff"
     d="M 8.0014178,25.908299 0.20622541,22.000946 1.7293825,21.237054 3.2525397,20.473162 9.6262698,23.660593 16,26.848023 l 6.37373,-3.18743 6.37373,-3.187431 1.523157,0.763892 1.523158,0.763892 -7.795193,3.907353 C 19.711226,28.057344 16.111864,29.815653 16,29.815653 c -0.111864,0 -3.711226,-1.758309 -7.9985822,-3.907354 z"
     id="path3338"
     inkscape:connector-curvature="0" />
  <path
     style="fill:#ffffff"
     d="M 8.0338983,19.95905 C 3.7644068,17.819467 0.27118644,16.035929 0.27118644,15.995632 c 0,-0.0403 0.65818837,-0.39802 1.46264086,-0.79494 L 3.1964681,14.47902 9.598234,17.68047 16,20.881921 l 6.401765,-3.201451 6.401767,-3.20145 1.46264,0.721672 c 0.804453,0.39692 1.462642,0.754642 1.462642,0.794938 0,0.10801 -15.564346,7.870102 -15.763023,7.861174 -0.09305,-0.0042 -3.662401,-1.758171 -7.9318927,-3.897754 z"
     id="path3340"
     inkscape:connector-curvature="0" />
  <path
     style="fill:#ffffff"
     d="M 8.0678778,13.941529 0.20355218,9.9996122 8.1017761,6.0511953 16,2.1027783 23.898226,6.0511966 31.796453,9.9996149 23.898686,13.94896 c -4.343772,2.17214 -7.913228,3.946001 -7.932125,3.941916 -0.0189,-0.0041 -3.573304,-1.781292 -7.8986832,-3.949347 z M 21.457624,12.661014 26.7783,9.9999943 21.38915,7.3047456 16,4.6094969 10.610856,7.3047426 5.2217127,9.9999883 10.509161,12.653633 c 2.908097,1.459504 5.364025,2.656964 5.457619,2.661022 0.09359,0.0041 2.564473,-1.19008 5.490844,-2.653641 z"
     id="path3342"
     inkscape:connector-curvature="0" />
</svg>
