<?xml version="1.0" encoding="UTF-8" standalone="no"?>
<!-- Generated by IcoMoon.io -->

<svg
   xmlns:dc="http://purl.org/dc/elements/1.1/"
   xmlns:cc="http://creativecommons.org/ns#"
   xmlns:rdf="http://www.w3.org/1999/02/22-rdf-syntax-ns#"
   xmlns:svg="http://www.w3.org/2000/svg"
   xmlns="http://www.w3.org/2000/svg"
   xmlns:sodipodi="http://sodipodi.sourceforge.net/DTD/sodipodi-0.dtd"
   xmlns:inkscape="http://www.inkscape.org/namespaces/inkscape"
   version="1.1"
   width="32"
   height="32"
   viewBox="0 0 32 32"
   id="svg3419"
   inkscape:version="0.91 r13725"
   sodipodi:docname="linkedin.svg">
  <metadata
     id="metadata3427">
    <rdf:RDF>
      <cc:Work
         rdf:about="">
        <dc:format>image/svg+xml</dc:format>
        <dc:type
           rdf:resource="http://purl.org/dc/dcmitype/StillImage" />
      </cc:Work>
    </rdf:RDF>
  </metadata>
  <defs
     id="defs3425" />
  <sodipodi:namedview
     pagecolor="#ffffff"
     bordercolor="#666666"
     borderopacity="1"
     objecttolerance="10"
     gridtolerance="10"
     guidetolerance="10"
     inkscape:pageopacity="0"
     inkscape:pageshadow="2"
     inkscape:window-width="1328"
     inkscape:window-height="793"
     id="namedview3423"
     showgrid="false"
     inkscape:zoom="18.84375"
     inkscape:cx="16"
     inkscape:cy="16"
     inkscape:window-x="0"
     inkscape:window-y="0"
     inkscape:window-maximized="0"
     inkscape:current-layer="svg3419" />
  <path
     d="M26.625 0h-21.25c-2.956 0-5.375 2.419-5.375 5.375v21.25c0 2.956 2.419 5.375 5.375 5.375h21.25c2.956 0 5.375-2.419 5.375-5.375v-21.25c0-2.956-2.419-5.375-5.375-5.375zM12 26h-4v-14h4v14zM10 10c-1.105 0-2-0.895-2-2s0.895-2 2-2 2 0.895 2 2-0.895 2-2 2zM26 26h-4v-8c0-1.105-0.895-2-2-2s-2 0.895-2 2v8h-4v-14h4v2.483c0.825-1.133 2.086-2.483 3.5-2.483 2.485 0 4.5 2.239 4.5 5v9z"
     fill="#444444"
     id="path3421" />
  <path
     style="fill:#ffffff"
     d="M 4.6434494,31.926216 C 3.8215094,31.820406 2.7586821,31.361156 2.0735371,30.815753 1.132389,30.066559 0.52695254,29.143812 0.1938461,27.950912 L 0.05306799,27.446766 0.03737153,16.24942 C 0.02610566,8.2127098 0.0384072,4.9322384 0.08095281,4.627529 0.32370319,2.8889639 1.4721942,1.3314877 3.0779436,0.56329 3.3698176,0.42365619 3.8116086,0.25412137 4.0597015,0.18654596 l 0.4510779,-0.12286437 11.4892206,0 11.489221,0 0.451078,0.1231718 c 0.558976,0.15263473 1.338423,0.51620253 1.769898,0.82555701 0.40832,0.2927537 1.062742,0.9674627 1.344581,1.3862629 0.455706,0.6771592 0.75104,1.4399454 0.86345,2.230111 0.04379,0.3078448 0.05592,3.4771506 0.04446,11.6206357 l -0.01576,11.197346 -0.142314,0.515181 c -0.579364,2.097315 -2.277575,3.621485 -4.394999,3.94458 -0.429113,0.06548 -2.135138,0.07597 -11.462687,0.07051 -6.0271973,-0.0035 -11.1137645,-0.0264 -11.3034826,-0.05082 z M 12.0199,19.008955 l 0,-7.031509 -2.016583,0 -2.016584,0 0,7.031509 0,7.031509 2.016584,0 2.016583,0 0,-7.031509 z m 6.008428,2.799337 0.01479,-4.232173 0.128026,-0.318408 c 0.2618,-0.651112 0.924809,-1.139085 1.666041,-1.226202 0.744237,-0.08747 1.554641,0.371167 1.916044,1.084358 0.233445,0.460683 0.243454,0.662191 0.243454,4.901176 l 0,4.023421 2.016584,0 2.016584,0 -3.19e-4,-4.68325 c -3.18e-4,-4.996849 -0.01204,-5.262614 -0.265604,-6.028482 -0.369455,-1.115931 -1.067857,-2.066486 -1.936134,-2.63517 -0.666849,-0.436757 -1.551915,-0.716116 -2.268802,-0.716116 -1.000781,0 -2.067829,0.643888 -3.072427,1.853995 l -0.443447,0.534161 -0.01426,-1.194078 -0.01426,-1.194078 -2.015587,0 -2.015588,0 0,7.031509 0,7.031509 2.015061,0 2.015062,0 0.01479,-4.232172 z M 10.837671,9.8312305 c 0.404571,-0.1824154 0.811077,-0.5938919 1.012083,-1.0244569 0.12322,-0.2639453 0.142518,-0.3735435 0.142518,-0.809427 0,-0.4351501 -0.01939,-0.5456743 -0.141678,-0.8075924 C 11.652989,6.7665226 11.280246,6.3866417 10.85913,6.1793051 10.539314,6.0218433 10.467037,6.0072968 10.00447,6.0072968 c -0.4421255,0 -0.5451071,0.018567 -0.8237071,0.1485092 C 8.7628513,6.3507242 8.35238,6.7594465 8.1629877,7.1692429 8.0319793,7.4527119 8.013267,7.5562094 8.013267,7.9973466 c 0,0.4538948 0.016369,0.5385282 0.1642216,0.8490879 0.3662365,0.7692673 1.0520061,1.1832035 1.9054304,1.1501336 0.326868,-0.012666 0.500515,-0.050705 0.754752,-0.1653376 z"
     id="path3429"
     inkscape:connector-curvature="0" />
</svg>
