<?xml version="1.0" encoding="UTF-8" standalone="no"?>
<!-- Generated by IcoMoon.io -->

<svg
   xmlns:dc="http://purl.org/dc/elements/1.1/"
   xmlns:cc="http://creativecommons.org/ns#"
   xmlns:rdf="http://www.w3.org/1999/02/22-rdf-syntax-ns#"
   xmlns:svg="http://www.w3.org/2000/svg"
   xmlns="http://www.w3.org/2000/svg"
   xmlns:sodipodi="http://sodipodi.sourceforge.net/DTD/sodipodi-0.dtd"
   xmlns:inkscape="http://www.inkscape.org/namespaces/inkscape"
   version="1.1"
   width="32"
   height="32"
   viewBox="0 0 32 32"
   id="svg3466"
   inkscape:version="0.91 r13725"
   sodipodi:docname="location.svg">
  <metadata
     id="metadata3474">
    <rdf:RDF>
      <cc:Work
         rdf:about="">
        <dc:format>image/svg+xml</dc:format>
        <dc:type
           rdf:resource="http://purl.org/dc/dcmitype/StillImage" />
      </cc:Work>
    </rdf:RDF>
  </metadata>
  <defs
     id="defs3472" />
  <sodipodi:namedview
     pagecolor="#ffffff"
     bordercolor="#666666"
     borderopacity="1"
     objecttolerance="10"
     gridtolerance="10"
     guidetolerance="10"
     inkscape:pageopacity="0"
     inkscape:pageshadow="2"
     inkscape:window-width="771"
     inkscape:window-height="770"
     id="namedview3470"
     showgrid="false"
     inkscape:zoom="7.375"
     inkscape:cx="16"
     inkscape:cy="16"
     inkscape:window-x="0"
     inkscape:window-y="0"
     inkscape:window-maximized="0"
     inkscape:current-layer="svg3466" />
  <path
     d="M16 0c-5.523 0-10 4.477-10 10 0 10 10 22 10 22s10-12 10-22c0-5.523-4.477-10-10-10zM16 16c-3.314 0-6-2.686-6-6s2.686-6 6-6 6 2.686 6 6-2.686 6-6 6z"
     fill="#444444"
     id="path3468" />
  <path
     style="fill:#ffffff"
     d="M 15.708445,31.500906 C 15.181223,30.927639 13.127624,28.029184 12.116919,26.431816 9.1795129,21.789398 7.2754955,17.449401 6.4433118,13.499455 6.0460916,11.614057 6.0057923,8.8181769 6.3574603,7.5432746 7.300141,4.1257738 9.8198536,1.5327233 13.233898,0.4666933 c 0.864218,-0.26985052 1.291867,-0.31623772 2.847458,-0.30886459 1.5865,0.00752 1.969081,0.0548269 2.870054,0.35489124 1.620496,0.53969735 2.768579,1.25117515 3.988917,2.47196775 1.19597,1.1964177 1.885489,2.2591145 2.410933,3.7157676 1.468305,4.0704827 0.0556,10.1037687 -4.085645,17.4486977 -1.196133,2.121467 -4.745982,7.322349 -5.181618,7.591587 -0.05435,0.03359 -0.223346,-0.07434 -0.375552,-0.239834 z m 1.484881,-15.570681 c 2.221235,-0.467193 4.086765,-2.228634 4.645001,-4.385832 1.089387,-4.2097377 -2.383758,-8.1011963 -6.706124,-7.5138235 -1.777259,0.2415144 -3.690262,1.5642514 -4.4685,3.0897246 -0.8417678,1.6500007 -0.9075053,3.7738219 -0.165864,5.3586729 1.206704,2.578668 3.999587,4.018289 6.695487,3.451258 z"
     id="path3476"
     inkscape:connector-curvature="0" />
</svg>
